<?xml version="1.0" encoding="UTF-8"?>
<svg xmlns:xodm="http://www.corel.com/coreldraw/odm/2003" xmlns="http://www.w3.org/2000/svg" xmlns:xlink="http://www.w3.org/1999/xlink" version="1.1" id="Layer_1" x="0px" y="0px" viewBox="0 0 2500 2500" style="enable-background:new 0 0 2500 2500;" xml:space="preserve">
<style type="text/css">
	.st0{fill:none;}
	.st1{fill:#F4B728;}
	.st2{fill:#231F20;}
</style>
<g id="Layer_x0020_1">
	<g id="_2082308686912">
		<path class="st0" d="M1250,206.6C674.4,206.6,206.1,674.9,206.1,1250S674.4,2293.9,1250,2293.9s1043.9-467.7,1043.9-1043.3    C2293.9,674.9,1825.6,206.6,1250,206.6L1250,206.6z M1250,2235.7c-544.1,0-985.2-441.1-985.2-985.2s441-985.7,985.2-985.7    s985.2,441,985.2,985.2S1794.1,2235.7,1250,2235.7z"></path>
		<path class="st1" d="M1250,264.8c-544.1,0-985.2,441.1-985.2,985.2s441,985.7,985.2,985.7s985.2-441.1,985.2-985.2    C2235.2,706.4,1794.1,264.8,1250,264.8L1250,264.8z M1695.9,860.7L1599.7,983l-432.5,595.4h528.6v252.6h-341.2v208.8h-25.1v1.1    h-159.1v-1.1h-25.1v-208.8H804.1v-190.6l96.1-122.3l432.5-595.4H804.2V670.1h341.2V460.3h209.3v209.3h341.2L1695.9,860.7    L1695.9,860.7z"></path>
		<path class="st2" d="M1250,0C560.7,0,0,560.7,0,1250s560.7,1250,1250,1250s1250-560.7,1250-1250S1939.3,0,1250,0z M1250,2293.9    c-575.6,0-1043.9-468.3-1043.9-1043.9S674.4,206.6,1250,206.6s1043.9,468.3,1043.9,1043.9    C2293.9,1826.1,1825.6,2293.9,1250,2293.9L1250,2293.9z M1354.7,670.1h341.2v190.6l-528.6,717.7h528.6v252.6h-341.2v208.8h-209.3    v-208.8H804.2v-190.6l528.6-717.6H804.2V670.1h341.2V460.3h209.3L1354.7,670.1L1354.7,670.1z"></path>
	</g>
</g>
</svg>
